<svg xmlns="http://www.w3.org/2000/svg" id="uuid-d8d144e4-7c17-4cc6-ab6d-bfa1f8b63383" data-name="Layer 2" viewBox="0 0 210.58 110.2"><defs><style>      .uuid-4ee41d9d-6029-4e23-a20c-9949444b0c0b {        fill: #fff;      }      .uuid-9566a7d6-f69e-4a34-b84c-efecfc19f42e {        fill: #f06709;      }    </style></defs><g id="uuid-d0fbc4b4-83d5-4b44-be47-8edb8e926a18" data-name="Footer"><path class="uuid-4ee41d9d-6029-4e23-a20c-9949444b0c0b" d="m198.69,5.83c6.24,0,11.31,5.06,11.31,11.31h.58c0-6.56-5.32-11.89-11.89-11.89v.58Zm0,103.33c6.56,0,11.89-5.32,11.89-11.89h-.58c0,6.24-5.06,11.31-11.31,11.31v.58Zm11.31-51.96v40.07h.58v-40.07h-.58Zm0-40.07v40.07h.58V17.14h-.58Zm-11.31,91.45H68.41v.58h130.27v-.58ZM68.41,5.83h130.27v-.58H68.41v.58Z"></path><path class="uuid-4ee41d9d-6029-4e23-a20c-9949444b0c0b" d="m187.75,51.22h-1.72v-19.65h-6.38v-1.54h14.45v1.54h-6.35v19.65Zm-11.08,0h-1.87l-11.43-18.52h-.09c0,.4,0,.8.03,1.22.02.4.03.81.03,1.25.02.44.03.88.03,1.34.02.44.03.88.03,1.34v13.38h-1.6v-21.19h1.87l11.4,18.46h.09c-.02-.3-.04-.64-.06-1.04,0-.42,0-.85-.03-1.31,0-.46,0-.91-.03-1.37v-14.75h1.63v21.19Zm-19.34,0h-10.95v-21.19h10.95v1.54h-9.23v7.78h8.73v1.51h-8.73v8.81h9.23v1.54Zm-17.3-10.74c0-2-.31-3.65-.92-4.96-.59-1.33-1.5-2.31-2.73-2.97-1.23-.67-2.77-1.01-4.63-1.01h-3.53v18.16h3.15c2.91,0,5.07-.76,6.5-2.29,1.44-1.54,2.17-3.86,2.17-6.94Zm1.81-.06c0,2.37-.4,4.36-1.19,5.97-.79,1.6-1.96,2.81-3.5,3.62s-3.44,1.22-5.7,1.22h-4.96v-21.19h5.58c2.1,0,3.87.4,5.31,1.19,1.46.79,2.57,1.96,3.32,3.5.75,1.54,1.13,3.44,1.13,5.7Zm-20.68,3.32c0,1.62-.3,3.02-.89,4.18-.59,1.15-1.45,2.04-2.58,2.67-1.13.61-2.5.92-4.13.92-2.39,0-4.23-.68-5.52-2.05-1.27-1.38-1.9-3.31-1.9-5.79v-13.65h1.69v13.65c0,2.06.49,3.63,1.48,4.72,1.01,1.07,2.45,1.6,4.33,1.6,1.27,0,2.32-.24,3.18-.71.85-.49,1.49-1.2,1.93-2.11.46-.93.68-2.04.68-3.32v-13.83h1.72v13.71Zm-24.16,7.48h-1.72v-19.65h-6.38v-1.54h14.45v1.54h-6.35v19.65Zm-9.67-5.49c0,1.27-.3,2.33-.89,3.21-.59.85-1.41,1.49-2.46,1.93-1.03.44-2.21.65-3.53.65-.81,0-1.55-.05-2.23-.15-.65-.08-1.25-.18-1.78-.3-.51-.14-1-.3-1.45-.47v-1.72c.73.3,1.56.56,2.49.8.93.22,1.94.33,3.03.33,1.03,0,1.92-.16,2.67-.47.77-.32,1.37-.78,1.78-1.39.44-.61.65-1.38.65-2.31,0-.85-.19-1.54-.56-2.08-.36-.53-.91-1-1.66-1.39-.73-.42-1.68-.83-2.85-1.25-.81-.32-1.54-.64-2.2-.98-.65-.34-1.22-.73-1.69-1.19-.46-.46-.81-.99-1.07-1.6-.24-.61-.36-1.36-.36-2.23,0-1.17.28-2.15.83-2.94.55-.79,1.31-1.39,2.26-1.81.97-.42,2.07-.62,3.29-.62.99,0,1.91.1,2.76.3.87.18,1.7.46,2.49.83l-.56,1.48c-.79-.36-1.58-.62-2.37-.8-.79-.18-1.58-.27-2.37-.27-.91,0-1.71.15-2.4.45-.67.28-1.21.7-1.6,1.28-.38.55-.56,1.25-.56,2.08,0,.91.19,1.64.56,2.2.38.55.91,1.02,1.6,1.39.71.36,1.56.72,2.55,1.1,1.19.42,2.2.87,3.03,1.37.85.49,1.49,1.1,1.93,1.81.46.71.68,1.64.68,2.79Z"></path><path class="uuid-9566a7d6-f69e-4a34-b84c-efecfc19f42e" d="m191.47,74.34c0,1.25-.28,2.33-.83,3.26-.55.93-1.39,1.65-2.52,2.17-1.11.49-2.51.74-4.21.74-.79,0-1.52-.05-2.2-.15-.67-.1-1.31-.24-1.9-.42-.59-.2-1.19-.44-1.78-.71v-4.18c1.01.44,2.04.84,3.09,1.22,1.07.36,2.08.53,3.03.53.61,0,1.11-.1,1.48-.3s.65-.46.83-.8c.18-.34.27-.72.27-1.16,0-.53-.15-.99-.45-1.37-.28-.38-.69-.72-1.25-1.04-.55-.34-1.24-.67-2.05-1.01-.59-.26-1.18-.55-1.75-.89-.57-.34-1.09-.74-1.54-1.22-.46-.49-.82-1.09-1.1-1.78-.26-.69-.39-1.52-.39-2.49,0-1.27.3-2.34.89-3.23.59-.91,1.42-1.6,2.49-2.08s2.31-.71,3.74-.71c1.17,0,2.25.13,3.23.39,1.01.26,1.97.62,2.88,1.1l-1.51,3.5c-.87-.4-1.7-.7-2.49-.92-.77-.22-1.52-.33-2.26-.33-.49,0-.91.09-1.25.27-.34.18-.59.43-.77.74-.16.32-.24.69-.24,1.13,0,.49.13.92.39,1.28.28.34.7.67,1.28,1.01.57.32,1.31.7,2.2,1.16.99.49,1.83,1.02,2.52,1.57.71.53,1.25,1.18,1.6,1.93.38.75.56,1.68.56,2.79Zm-15.71,0c0,1.25-.28,2.33-.83,3.26-.55.93-1.39,1.65-2.52,2.17-1.11.49-2.51.74-4.21.74-.79,0-1.52-.05-2.2-.15-.67-.1-1.31-.24-1.9-.42-.59-.2-1.19-.44-1.78-.71v-4.18c1.01.44,2.04.84,3.09,1.22,1.07.36,2.08.53,3.03.53.61,0,1.11-.1,1.48-.3s.65-.46.83-.8c.18-.34.27-.72.27-1.16,0-.53-.15-.99-.45-1.37-.28-.38-.69-.72-1.25-1.04-.55-.34-1.24-.67-2.05-1.01-.59-.26-1.18-.55-1.75-.89-.57-.34-1.09-.74-1.54-1.22-.46-.49-.82-1.09-1.1-1.78-.26-.69-.39-1.52-.39-2.49,0-1.27.3-2.34.89-3.23.59-.91,1.42-1.6,2.49-2.08,1.07-.47,2.31-.71,3.74-.71,1.17,0,2.25.13,3.23.39,1.01.26,1.97.62,2.88,1.1l-1.51,3.5c-.87-.4-1.7-.7-2.49-.92-.77-.22-1.52-.33-2.26-.33-.49,0-.91.09-1.25.27-.34.18-.59.43-.77.74-.16.32-.24.69-.24,1.13,0,.49.13.92.39,1.28.28.34.7.67,1.28,1.01.57.32,1.31.7,2.2,1.16.99.49,1.83,1.02,2.52,1.57.71.53,1.25,1.18,1.6,1.93.38.75.56,1.68.56,2.79Zm-16.19,5.88h-11.63v-21.19h11.63v3.68h-6.83v4.66h6.35v3.68h-6.35v5.46h6.83v3.71Zm-20.91-17.75c-.71,0-1.36.17-1.93.5-.55.34-1.03.82-1.42,1.45-.4.61-.69,1.37-.89,2.26-.2.89-.3,1.89-.3,3,0,1.5.17,2.79.5,3.86.34,1.05.85,1.85,1.54,2.4.69.55,1.57.83,2.64.83.85,0,1.68-.1,2.49-.3.83-.2,1.69-.47,2.58-.83v3.77c-.87.38-1.75.65-2.64.83-.89.18-1.86.27-2.91.27-2.12,0-3.85-.45-5.19-1.34-1.35-.91-2.34-2.18-3-3.8-.63-1.64-.95-3.55-.95-5.73,0-1.6.21-3.07.62-4.39.42-1.35,1.03-2.5,1.84-3.47s1.8-1.72,2.97-2.26c1.19-.53,2.54-.8,4.07-.8.99,0,2.03.14,3.12.42,1.11.26,2.07.61,2.88,1.07l-1.51,3.65c-.73-.38-1.47-.7-2.23-.98-.73-.28-1.49-.42-2.29-.42Zm-17.36,0c-.71,0-1.36.17-1.93.5-.55.34-1.03.82-1.42,1.45-.4.61-.69,1.37-.89,2.26-.2.89-.3,1.89-.3,3,0,1.5.17,2.79.5,3.86.34,1.05.85,1.85,1.54,2.4.69.55,1.57.83,2.64.83.85,0,1.68-.1,2.49-.3.83-.2,1.69-.47,2.58-.83v3.77c-.87.38-1.75.65-2.64.83-.89.18-1.86.27-2.91.27-2.12,0-3.85-.45-5.19-1.34-1.35-.91-2.34-2.18-3-3.8-.63-1.64-.95-3.55-.95-5.73,0-1.6.21-3.07.62-4.39.42-1.35,1.03-2.5,1.84-3.47.81-.97,1.8-1.72,2.97-2.26,1.19-.53,2.54-.8,4.07-.8.99,0,2.03.14,3.12.42,1.11.26,2.07.61,2.88,1.07l-1.51,3.65c-.73-.38-1.47-.7-2.23-.98-.73-.28-1.49-.42-2.29-.42Zm-13.17,10.27c0,1.46-.32,2.79-.95,3.98-.61,1.17-1.54,2.1-2.79,2.79-1.25.67-2.81,1.01-4.69,1.01-2.69,0-4.75-.71-6.17-2.14-1.4-1.44-2.11-3.34-2.11-5.7v-13.65h4.81v12.97c0,1.74.3,2.97.89,3.68.61.71,1.5,1.07,2.67,1.07.83,0,1.5-.17,2.02-.5.51-.34.89-.86,1.13-1.57.26-.71.39-1.61.39-2.7v-12.94h4.81v13.71Zm-19.92,1.6c0,1.25-.28,2.33-.83,3.26-.55.93-1.39,1.65-2.52,2.17-1.11.49-2.51.74-4.21.74-.79,0-1.52-.05-2.2-.15-.67-.1-1.31-.24-1.9-.42-.59-.2-1.19-.44-1.78-.71v-4.18c1.01.44,2.04.84,3.09,1.22,1.07.36,2.08.53,3.03.53.61,0,1.11-.1,1.48-.3.38-.2.65-.46.83-.8.18-.34.27-.72.27-1.16,0-.53-.15-.99-.45-1.37-.28-.38-.69-.72-1.25-1.04-.55-.34-1.24-.67-2.05-1.01-.59-.26-1.18-.55-1.75-.89-.57-.34-1.09-.74-1.54-1.22-.46-.49-.82-1.09-1.1-1.78-.26-.69-.39-1.52-.39-2.49,0-1.27.3-2.34.89-3.23.59-.91,1.42-1.6,2.49-2.08,1.07-.47,2.31-.71,3.74-.71,1.17,0,2.25.13,3.23.39,1.01.26,1.97.62,2.88,1.1l-1.51,3.5c-.87-.4-1.7-.7-2.49-.92-.77-.22-1.52-.33-2.26-.33-.49,0-.91.09-1.25.27-.34.18-.59.43-.77.74-.16.32-.24.69-.24,1.13,0,.49.13.92.39,1.28.28.34.7.67,1.28,1.01.57.32,1.31.7,2.2,1.16.99.49,1.83,1.02,2.52,1.57.71.53,1.25,1.18,1.6,1.93.38.75.56,1.68.56,2.79Z"></path><path class="uuid-4ee41d9d-6029-4e23-a20c-9949444b0c0b" d="m191.17,97.43h-4.63v-8.29h4.63v.92h-3.59v2.59h3.38v.91h-3.38v2.96h3.59v.92Zm-12.37-8.29l-2.96,8.29h-1.05l-2.96-8.29h1.09l1.87,5.32c.09.22.16.44.22.65s.12.41.16.6c.05.19.1.37.14.56.04-.19.08-.38.13-.57.05-.19.11-.39.17-.6.07-.21.14-.43.22-.66l1.86-5.3h1.1Zm-14.06,8.29h-3v-.6l.98-.22v-6.63l-.98-.23v-.6h3v.6l-.98.23v6.63l.98.22v.6Zm-12.78,0h-1.05v-7.37h-2.59v-.92h6.21v.92h-2.58v7.37Zm-12.88-6c-.02-.06-.06-.17-.12-.34-.05-.16-.11-.33-.16-.5-.05-.18-.09-.31-.12-.41-.04.15-.08.31-.13.48-.04.15-.08.3-.13.43-.04.13-.07.24-.1.34l-.94,2.51h2.62l-.93-2.51Zm2.24,6l-1-2.57h-3.29l-.99,2.57h-1.06l3.24-8.33h.94l3.23,8.33h-1.08Zm-13.42,0h-3v-.6l.98-.22v-6.63l-.98-.23v-.6h3v.6l-.98.23v6.63l.98.22v.6Zm-12.78,0h-1.05v-7.37h-2.59v-.92h6.21v.92h-2.58v7.37Zm-10.84,0h-3v-.6l.98-.22v-6.63l-.98-.23v-.6h3v.6l-.98.23v6.63l.98.22v.6Zm-11.2,0h-1.22l-4.44-6.89h-.05c0,.14.02.29.02.46.02.17.03.36.03.56,0,.19.02.39.02.6,0,.21.01.42.01.63v4.63h-.96v-8.29h1.21l4.42,6.86h.05c0-.09-.02-.22-.02-.38,0-.17-.02-.36-.02-.56,0-.21-.02-.42-.02-.64,0-.22-.01-.42-.01-.6v-4.68h.98v8.29Zm-14.79,0h-3v-.6l.98-.22v-6.63l-.98-.23v-.6h3v.6l-.98.23v6.63l.98.22v.6Z"></path><path class="uuid-4ee41d9d-6029-4e23-a20c-9949444b0c0b" d="m195.98,20.25c0,.3-.07.56-.22.77-.15.21-.36.37-.63.48-.27.11-.59.17-.96.17-.19,0-.37,0-.55-.03-.17-.02-.33-.04-.47-.08-.14-.04-.27-.08-.38-.13v-.61c.17.08.38.14.63.21.26.06.52.09.79.09.25,0,.46-.03.63-.1.17-.07.3-.16.38-.28.09-.12.13-.27.13-.43s-.04-.31-.11-.42c-.07-.11-.19-.22-.37-.31-.17-.1-.41-.2-.72-.31-.22-.08-.41-.17-.57-.26-.16-.09-.3-.2-.4-.32-.11-.12-.19-.25-.25-.4-.05-.15-.08-.33-.08-.53,0-.27.07-.5.21-.69.14-.19.33-.34.57-.45.25-.1.53-.16.84-.16.28,0,.53.03.77.08.23.05.44.12.63.21l-.2.55c-.18-.08-.37-.14-.57-.19-.2-.05-.42-.08-.64-.08s-.39.03-.53.09-.25.15-.32.26c-.07.11-.11.24-.11.38,0,.17.04.31.11.43s.19.22.35.31c.16.09.38.19.65.29.3.11.55.23.75.35.21.12.36.27.47.45.11.18.16.4.16.66Zm-3.99,1.36h-2.83v-5.07h2.83v.56h-2.19v1.58h2.07v.55h-2.07v1.81h2.19v.56Zm-5.79-2.68h1.75v2.48c-.27.09-.55.16-.83.2-.28.04-.6.06-.95.06-.53,0-.97-.1-1.33-.31-.36-.21-.63-.51-.82-.9-.18-.39-.28-.86-.28-1.39s.1-.99.31-1.38c.21-.39.51-.69.89-.9.39-.22.87-.33,1.42-.33.28,0,.55.03.8.08.26.05.49.13.71.22l-.24.55c-.18-.08-.38-.15-.61-.21-.22-.06-.45-.09-.7-.09-.4,0-.75.08-1.04.25-.29.17-.51.4-.66.71-.15.3-.23.66-.23,1.09s.06.76.19,1.07c.13.31.34.55.62.72.28.17.65.26,1.1.26.15,0,.28,0,.4-.01.12-.01.22-.03.32-.05.1-.02.19-.04.28-.06v-1.5h-1.11v-.57Zm-3.31,2.68h-2.83v-5.07h2.83v.56h-2.19v1.58h2.07v.55h-2.07v1.81h2.19v.56Zm-6.55,0v-5.07h.64v4.5h2.21v.57h-2.85Zm-3.72,0v-5.07h.64v4.5h2.21v.57h-2.85Zm-5.13-2.54c0,.43.06.79.18,1.1s.3.54.55.71c.25.17.57.25.94.25s.7-.08.94-.25c.25-.17.43-.4.55-.71s.18-.67.18-1.1c0-.64-.13-1.14-.4-1.5-.26-.36-.68-.55-1.26-.55-.38,0-.7.08-.95.25-.25.16-.43.4-.55.7-.12.3-.18.67-.18,1.09Zm4,0c0,.39-.05.75-.15,1.07-.1.32-.25.59-.45.82-.19.23-.44.41-.73.53-.29.12-.62.18-1.01.18s-.74-.06-1.04-.18c-.29-.13-.54-.31-.73-.53-.19-.23-.34-.51-.43-.83s-.14-.68-.14-1.07c0-.52.09-.97.26-1.36.17-.39.43-.69.77-.91.35-.22.79-.33,1.32-.33s.93.11,1.28.33c.35.21.61.52.78.91.18.39.27.84.27,1.37Zm-6.59-2.04c-.27,0-.51.05-.73.14-.22.09-.4.22-.55.4-.15.18-.27.39-.35.65-.08.25-.12.53-.12.85,0,.42.06.78.19,1.09.13.31.33.54.58.71.26.17.58.25.97.25.22,0,.43-.02.63-.06.2-.04.39-.09.58-.14v.55c-.19.07-.39.12-.59.16-.2.03-.44.05-.72.05-.52,0-.95-.11-1.29-.32-.35-.21-.61-.52-.78-.91-.17-.39-.26-.85-.26-1.38,0-.38.05-.73.16-1.05.11-.32.26-.59.47-.82.21-.23.46-.41.77-.53.3-.13.65-.19,1.04-.19.26,0,.51.03.75.08.24.05.46.13.65.22l-.26.54c-.16-.07-.33-.13-.53-.19-.19-.06-.4-.09-.62-.09Zm-6.71,2l1.32-2.49h.69l-1.69,3.1v1.97h-.64v-1.94l-1.69-3.13h.7l1.31,2.49Zm-3.66,2.58h-.64v-4.51h-1.58v-.56h3.8v.56h-1.58v4.51Zm-2.58,0h-1.83v-.37l.6-.13v-4.05l-.6-.14v-.37h1.83v.37l-.6.14v4.05l.6.13v.37Zm-2.8,0h-.75l-2.71-4.21h-.03c0,.09,0,.18.01.28,0,.1.02.22.02.34,0,.12,0,.24.01.37s0,.26,0,.38v2.83h-.59v-5.07h.74l2.7,4.19h.03c0-.06,0-.13-.01-.23,0-.1,0-.22-.01-.34,0-.13,0-.26-.01-.39,0-.13,0-.26,0-.37v-2.86h.6v5.07Zm-5.35-1.79c0,.35-.07.67-.21.95-.14.28-.36.5-.65.67-.29.16-.66.24-1.11.24-.63,0-1.11-.17-1.44-.51-.33-.35-.49-.8-.49-1.36v-3.26h.64v3.29c0,.41.11.73.33.96.22.23.56.34,1,.34.31,0,.56-.05.75-.16.19-.11.34-.27.43-.46.09-.2.13-.43.13-.68v-3.28h.63v3.28Zm-8.06,1.79l-1.67-4.44h-.03c0,.09.02.22.02.36,0,.15.02.31.02.48,0,.17,0,.35,0,.53v3.07h-.59v-5.07h.94l1.56,4.15h.03l1.59-4.15h.94v5.07h-.63v-3.12c0-.17,0-.33,0-.49,0-.17.01-.32.02-.46,0-.15.02-.27.02-.37h-.03l-1.69,4.44h-.53Zm-6.44,0l-1.67-4.44h-.03c0,.09.02.22.02.36,0,.15.02.31.02.48,0,.17,0,.35,0,.53v3.07h-.59v-5.07h.94l1.56,4.15h.03l1.59-4.15h.94v5.07h-.63v-3.12c0-.17,0-.33,0-.49,0-.17.01-.32.02-.46,0-.15.02-.27.02-.37h-.03l-1.69,4.44h-.53Zm-7.36-2.54c0,.43.06.79.18,1.1.12.31.3.54.55.71.25.17.57.25.94.25s.7-.08.94-.25c.25-.17.43-.4.55-.71.12-.31.18-.67.18-1.1,0-.64-.13-1.14-.4-1.5-.26-.36-.68-.55-1.26-.55-.38,0-.7.08-.95.25-.25.16-.43.4-.55.7-.12.3-.18.67-.18,1.09Zm4,0c0,.39-.05.75-.15,1.07-.1.32-.25.59-.45.82-.19.23-.44.41-.73.53-.29.12-.62.18-1.01.18s-.74-.06-1.04-.18c-.29-.13-.54-.31-.73-.53-.19-.23-.34-.51-.43-.83s-.14-.68-.14-1.07c0-.52.09-.97.26-1.36s.43-.69.77-.91c.35-.22.79-.33,1.32-.33s.93.11,1.28.33c.35.21.61.52.78.91.18.39.27.84.27,1.37Zm-6.59-2.04c-.27,0-.51.05-.73.14-.22.09-.4.22-.55.4-.15.18-.27.39-.35.65-.08.25-.12.53-.12.85,0,.42.06.78.19,1.09.13.31.33.54.58.71.26.17.58.25.97.25.22,0,.43-.02.63-.06.2-.04.39-.09.58-.14v.55c-.19.07-.39.12-.59.16-.2.03-.44.05-.72.05-.52,0-.95-.11-1.29-.32-.35-.21-.61-.52-.78-.91-.17-.39-.26-.85-.26-1.38,0-.38.05-.73.16-1.05.11-.32.26-.59.47-.82.21-.23.46-.41.77-.53.3-.13.65-.19,1.04-.19.26,0,.51.03.75.08.24.05.46.13.65.22l-.26.54c-.16-.07-.33-.13-.53-.19-.19-.06-.4-.09-.62-.09Zm-6.74.91s-.04-.11-.07-.21c-.03-.1-.07-.2-.1-.31-.03-.11-.05-.19-.07-.25-.02.09-.05.19-.08.29-.02.09-.05.18-.08.26-.02.08-.04.15-.06.21l-.57,1.53h1.6l-.57-1.53Zm1.37,3.67l-.61-1.57h-2.01l-.6,1.57h-.65l1.98-5.09h.57l1.97,5.09h-.66Zm-4.16,0h-1.83v-.37l.6-.13v-4.05l-.6-.14v-.37h1.83v.37l-.6.14v4.05l.6.13v.37Zm-2.8,0h-.75l-2.71-4.21h-.03c0,.09,0,.18.01.28,0,.1.02.22.02.34,0,.12,0,.24.01.37,0,.13,0,.26,0,.38v2.83h-.59v-5.07h.74l2.7,4.19h.03c0-.06,0-.13-.01-.23,0-.1,0-.22-.01-.34,0-.13,0-.26-.01-.39,0-.13,0-.26,0-.37v-2.86h.6v5.07Zm-7.07-4.51h-.72v1.88h.76c.27,0,.5-.04.67-.11.18-.08.3-.18.38-.33.09-.14.13-.32.13-.53s-.04-.4-.13-.53c-.09-.13-.22-.23-.4-.29-.18-.06-.41-.09-.69-.09Zm.04-.55c.42,0,.77.05,1.04.16.27.1.48.26.61.48.13.21.2.48.2.8,0,.27-.05.49-.15.67-.1.18-.23.32-.38.43-.15.1-.31.19-.48.25l1.39,2.27h-.75l-1.23-2.09h-1.01v2.09h-.64v-5.07h1.4Zm-6.52,2.53c0,.43.06.79.18,1.1s.3.54.55.71c.25.17.57.25.94.25s.7-.08.94-.25c.25-.17.43-.4.55-.71.12-.31.18-.67.18-1.1,0-.64-.13-1.14-.4-1.5-.26-.36-.68-.55-1.26-.55-.38,0-.7.08-.95.25-.25.16-.43.4-.55.7-.12.3-.18.67-.18,1.09Zm4,0c0,.39-.05.75-.15,1.07-.1.32-.25.59-.45.82-.19.23-.44.41-.73.53-.29.12-.62.18-1.01.18s-.74-.06-1.04-.18c-.29-.13-.54-.31-.73-.53-.19-.23-.34-.51-.43-.83s-.14-.68-.14-1.07c0-.52.09-.97.26-1.36.17-.39.43-.69.77-.91.35-.22.79-.33,1.32-.33s.93.11,1.28.33c.35.21.61.52.78.91.18.39.27.84.27,1.37Zm-7.46,2.54h-.64v-5.07h2.83v.56h-2.19v1.8h2.06v.56h-2.06v2.15Zm-1.62,0h-1.83v-.37l.6-.13v-4.05l-.6-.14v-.37h1.83v.37l-.6.14v4.05l.6.13v.37Zm-5.15,0v-5.07h.64v4.5h2.21v.57h-2.85Zm-2.72-3.67s-.04-.11-.07-.21c-.03-.1-.07-.2-.1-.31-.03-.11-.05-.19-.07-.25-.02.09-.05.19-.08.29-.02.09-.05.18-.08.26-.02.08-.04.15-.06.21l-.57,1.53h1.6l-.57-1.53Zm1.37,3.67l-.61-1.57h-2.01l-.6,1.57h-.65l1.98-5.09h.57l1.97,5.09h-.66Zm-5.49-4.58c-.27,0-.51.05-.73.14-.22.09-.4.22-.55.4-.15.18-.27.39-.35.65-.08.25-.12.53-.12.85,0,.42.06.78.19,1.09.13.31.33.54.58.71.26.17.58.25.97.25.22,0,.43-.02.63-.06.2-.04.39-.09.58-.14v.55c-.19.07-.39.12-.59.16-.2.03-.44.05-.72.05-.52,0-.95-.11-1.29-.32-.35-.21-.61-.52-.78-.91-.17-.39-.26-.85-.26-1.38,0-.38.05-.73.16-1.05.11-.32.26-.59.47-.82.21-.23.46-.41.77-.53.3-.13.65-.19,1.04-.19.26,0,.51.03.75.08.24.05.46.13.65.22l-.26.54c-.16-.07-.33-.13-.53-.19-.19-.06-.4-.09-.62-.09Z"></path><path class="uuid-4ee41d9d-6029-4e23-a20c-9949444b0c0b" d="m30.65,13.01c2.39,0,4.34,1.94,4.34,4.34s-1.94,4.34-4.34,4.34-4.34-1.94-4.34-4.34,1.94-4.34,4.34-4.34Zm0,10.47c3.29,0,6.13-2.69,6.13-6.13s-2.69-6.13-6.13-6.13-6.13,2.69-6.13,6.13,2.69,6.13,6.13,6.13Z"></path><path class="uuid-4ee41d9d-6029-4e23-a20c-9949444b0c0b" d="m49.49,37.23l-5.98.75c-.75.15-1.5,0-2.24-.45l-4.93-2.39v-3.89l6.73,3.59,5.98-.6c.45,0,.9.15,1.2.3.3.15.45.6.6,1.05,0,.75-.6,1.5-1.35,1.64Zm-3.29,21.83l-2.84,10.92c-.15,1.05-.45,1.64-.9,1.94-.3.15-.9.3-1.5.15-1.35-.3-1.79-1.2-1.64-2.54l1.79-8.22c.15-.6-.15-1.05-.75-1.2l-5.83-1.5-1.79-.45c-.9-.15-1.64.3-1.94,1.05l-7.03,23.33c-.15.6-.45,1.05-.9,1.35-.45.15-.9.3-1.35.15-.6-.15-1.2-.6-1.5-1.2-.3-.45-.3-1.05-.15-1.64l3.29-12.56,3.59-15.4c1.79-.75,2.69-2.69,2.09-4.49l-1.94-8.97,3.59-4.19-1.35-1.2-4.19,4.93,2.09,9.87c.3.9-.15,1.94-1.05,2.39-.45.15-1.05.15-1.5-.15-.45-.3-.75-.6-.9-1.05l-2.39-9.87c-.15-1.05.15-2.24,1.05-3.14l4.64-6.73s1.64-2.69,4.34-2.84c1.2,0,1.94.15,2.54.75.9.75,1.05,2.09,1.05,3.14v.45l-.45,20.93,10.02,2.69c1.35.45,2.24,1.79,1.79,3.29Zm-10.17-7.33l.3-14.65,4.04,1.94c.75.45,1.64.6,2.54.6h.6l4.34-.45-4.79,14.5-7.03-1.94Zm15.25-38.13c-.75,0-1.5,0-2.24.15-2.69.15-5.08.3-6.58-1.79l3.14-9.12c2.99,1.64,5.68,1.64,7.93,1.64,2.54,0,4.19-.15,5.83,2.24l-2.99,8.67c-1.5-1.5-3.29-1.79-5.08-1.79Zm.75,19.89l9.42-27.07-.15-.3c-2.24-3.59-4.79-3.59-7.63-3.44-2.24,0-4.93.15-7.93-1.94l-1.2-.75-4.19,12.11.15.3c2.09,3.44,5.53,3.14,8.52,2.99,2.69-.15,5.08-.3,6.58,1.79l-5.23,15.25c-.45-.15-.9-.3-1.5-.15l-5.38.6-7.63-4.04c-.3-.6-.6-1.2-1.05-1.64-.9-.9-2.24-1.35-3.89-1.2-3.74.15-5.68,3.59-5.68,3.59l-4.49,6.58c-1.05,1.2-1.64,2.84-1.35,4.64l2.54,9.87c.3.9.9,1.79,1.79,2.24.3.15.75.3,1.2.3l-3.44,14.8-3.29,12.41c-.3,1.05-.15,2.09.3,2.99.6,1.05,1.5,1.79,2.54,2.09.45.15.75.15,1.2.15.6,0,1.2-.15,1.64-.45.9-.45,1.5-1.35,1.79-2.39l6.88-22.88,6.73,1.64-1.64,7.48c-.45,2.39.75,4.19,2.99,4.64,1.2.3,2.09.15,2.84-.45,1.05-.75,1.35-2.09,1.64-2.99l2.69-10.92c.6-2.39-.75-4.79-3.14-5.38l5.23-15.1h-.15c1.64-.3,2.84-1.79,2.69-3.59,0-.75-.45-1.5-.9-2.09l.45.3Z"></path><path class="uuid-4ee41d9d-6029-4e23-a20c-9949444b0c0b" d="m33.94,78.2h14.36v30.21h-14.36v-30.21Zm-1.79,30.21h-14.35v-16.75h14.35v16.75Zm-16,0H1.79v-8.22h14.35v8.22Zm16-18.54h-16v8.52H0v11.81h50.24v-33.79h-17.94v13.46h-.15Z"></path></g></svg>