<?xml version="1.0" encoding="UTF-8" standalone="no"?>
<!DOCTYPE svg PUBLIC "-//W3C//DTD SVG 1.1//EN" "http://www.w3.org/Graphics/SVG/1.1/DTD/svg11.dtd">
<svg width="147" height="28" xmlns="http://www.w3.org/2000/svg"><g fill="none" fill-rule="evenodd"><g fill-rule="nonzero"><path d="M128.686 6.085l4.029 12.554.272.073 5.312-12.62h2.394c-.56 1.256-1.062 2.396-1.572 3.532-2.184 4.863-4.364 9.728-6.559 14.586-.668 1.481-1.505 2.814-3.149 3.408-1.407.508-2.799.455-4.359-.054l-.248-1.774c.477.12.774.182 1.064.27 1.646.493 2.942.097 3.883-1.352.608-.937 1.086-1.967 1.55-2.988.134-.296.111-.74 0-1.061-1.564-4.497-3.158-8.983-4.739-13.473-.11-.314-.186-.641-.318-1.1h2.44zm-9.908-.408c1.896.111 3.614.562 4.825 2.163 1.052 1.392 1.275 2.98 1.08 4.8h-11.019c-.688 2.724.638 5.98 3.67 6.696 1.863.44 3.623.027 5.391-.46.192-.052.385-.093.724-.174l-.303 1.748c-2.076.636-4.17.835-6.329.533-3.72-.52-5.517-3.28-5.73-6.606-.098-1.538.07-3.045.678-4.47 1.238-2.896 3.825-4.417 7.013-4.23zm-11.425.337c.484.053.978.01 1.468.01l.121.211-5.983 6.277c1.14 1.418 2.22 2.78 3.32 4.124 1.087 1.328 2.195 2.639 3.436 4.126h-2.653l-6.524-8.174c.255-.327.43-.58.634-.808 1.502-1.671 3.032-3.318 4.503-5.018.473-.546.955-.827 1.678-.748zM100.575.825l-.722 19.893H97.55L98.286.825h2.289zm-5.239 11.446v1.604h-7.01V12.27h7.01zm20.876-4.614c-1.508.737-2.548 2.41-2.342 3.806h8.456c.38-1.856-.653-3.656-2.31-4.131-1.3-.372-2.585-.272-3.804.325z" fill="#1A1A1D"></path><path d="M44.1 9.409c.217.077.313.142.409.142 1.614-.008 3.235.062 4.84-.065 1.197-.094 2.236-.664 2.914-1.749 1.21-1.931.801-5.134-2.4-5.211a267.588 267.588 0 00-4.686-.065c-.249-.001-.497.081-.797.134L44.1 9.41m-.056 1.92l-.33 7.574c.268.075.366.126.465.127 1.25.01 2.504.055 3.752 0 .928-.04 1.88-.105 2.767-.353 1.515-.423 2.472-1.957 2.475-3.698.004-1.655-.788-2.933-2.4-3.339-1.164-.292-2.418-.249-3.634-.302-1.006-.043-2.017-.009-3.095-.009M41.995.765h1.892C45.95.76 48.011.726 50.072.767c.8.016 1.616.13 2.391.327 1.206.307 2.063 1.078 2.519 2.265 1.018 2.657.125 5.127-2.347 6.494-.225.124-.444.258-.8.464.326.186.547.344.792.446 2.178.902 3.036 2.184 3.015 4.53-.02 2.32-1.196 4.191-3.25 4.875a11.97 11.97 0 01-3.29.59c-2.45.092-4.905.043-7.357.044-.173 0-.346-.063-.545-.1L41.995.764M68.119 10.534c.07 5.613 2.771 8.455 7.771 8.743 3.295.189 6.234-1.402 7.545-4.19 1.135-2.415 1.235-4.94.553-7.512-.41-1.542-1.16-2.878-2.477-3.793-2.774-1.926-5.785-2.037-8.774-.71-3.412 1.514-4.375 4.6-4.618 7.462m-2.527.74a11.614 11.614 0 011.191-5.393c1.252-2.563 3.33-4.083 6.019-4.872 2.711-.795 5.422-.825 8.082.104 3.321 1.16 5.31 3.588 5.872 7.04.508 3.13.168 6.184-1.718 8.879-1.505 2.149-3.63 3.311-6.164 3.814-2.625.52-5.199.384-7.69-.608-3.396-1.352-5.114-3.975-5.508-7.55-.051-.47-.057-.943-.084-1.414M61.383 20.731h-2.662l.778-19.88h2.537l-.653 19.88" fill="#A13B2D"></path><path d="M18.915 9.154a5.463 5.463 0 013.64-.678l.06.012.031.006.016.003.015.003.03.006.03.006.032.007.014.003.016.003.03.006c.011.001.021.004.032.006l.03.006.045.01.016.003.03.005.046.01.016.003.03.006.031.006.06.013c.011.001.021.004.031.006l.03.006c.012.001.022.005.032.006l.03.006.03.006.032.007.015.003.015.003.046.01.015.002.03.006.016.003.015.004c.01 0 .02.004.031.006l.046.009.015.003.03.006.031.007.03.005.03.007.032.006.03.006.031.006.03.006.03.006c.011.002.021.005.032.006l.03.006.03.007.047.009.015.003.03.006.031.007.03.006.031.006.015.003.016.003.03.006.031.007.046.009.015.003.03.006.032.006.014.003.016.003.03.006.031.007.046.009.015.002.03.007c.01.002.02.005.031.006l.03.006c.011.002.02.005.031.006l.016.003.015.004.046.009.015.003.03.006c.011.001.021.005.032.006l.03.007c.01 0 .02.004.03.005l.03.007.047.01.015.002.03.006c.01.002.02.005.031.006l.03.007c.01 0 .021.004.031.006l.03.005.031.007.03.006c.011.002.021.005.032.006l.03.006.03.007c.011.001.021.005.031.006l.015.003.016.003.03.006.031.006.046.01.015.002.03.007.031.006.03.006.031.006.03.006.032.007a5.274 5.274 0 013.775 2.59l.111.204c1.31 2.537.372 5.715-2.165 7.191l-12.908 7.509-.01-.018-.02.012-.01-.018-.02.012-.011-.018-.02.011-.01-.017-.02.011-.011-.018-.02.012-.01-.018-.021.012-.01-.018-.02.012-.01-.018-.021.012-.01-.018-.021.012-.01-.018-.02.011-.01-.018-.02.012-.011-.018-.02.012-.01-.018-.021.012-.01-.018-.02.012-.01-.018-.021.012-.01-.019-.02.012-.011-.017-.02.011-.01-.018-.02.012-.011-.018-.02.012-.011-.018-.02.012-.01-.018-.02.012-.01-.018-.021.011-.01-.018-.021.012-.01-.018-.02.012-.01-.018-.021.012-.01-.018-.02.011-.01-.018-.02.013-.012-.018-.02.012-.01-.018-.02.011-.01-.018-.02.012-.011-.018-.02.012-.01-.018-.02.012-.011-.018-.02.012-.01-.019-.02.012-.011-.018-.02.012-.011-.017-.02.011-.01-.018-.02.012-.01-.018-.021.012-.01-.018-.021.012-.01-.018-.02.012-.01-.018-.021.011-.01-.018-.02.012-.01-.018-.021.012-.01-.017-.02.011-.011-.018-.02.011-.01-.018-.02.013-.011-.018-.02.012-.01-.018-.02.011-.011-.018-.02.012-.01-.018-.021.012-.01-.018-.02.012-.011-.018-.02.012-.01-.018-.021.011-.01-.018-.02.012-.01-.017-.021.01-.01-.017-.02.012-.01-.018-.021.012-.01-.018-.02.012-.011-.018-.02.012-.01-.018-.02.011-.011-.018-.02.012-.011-.018-.02.012-.01-.018-.02.012-.01-.018-.02.012-.011-.018-.02.012-.01-.019-.021.012-.01-.018-.02.012-.01-.018-.021.012-.01-.018-.021.012-.01-.018-.02.012-.01-.018-.021.012-.01-.018-.02.011-.01-.018-.021.012-.01-.018-.021.012-.01-.018-.02.012-.01-.018-.02.012-.011-.018-.02.011-.011-.017-.02.012-.01-.018-.02.011-.011-.018-.02.012-.01-.018-.02.012-.01-.018-.022.012-.01-.018-.02.012-.01-.018-.02.011-.01-.018-.021.012-.01-.018-.02.012-.01-.018-.021.012-.01-.018-.02.012-.011-.018-.02.012-.01-.018-.021.012-.01-.018-.02.011-.01-.018-.02.012-.011-.018-.02.012-.011-.018-.02.012-.01-.018-.02.011-.011-.018-.02.012-.01-.017-.02.012-.011-.018-.02.01-.01-.017-.021.012-.01-.018-.02.012-.01-.018-.021.012-5.33-9.299zM10.26.575a4.22 4.22 0 012.86-.51l.03.005.032.007.03.005.015.003.016.004.03.006.032.006.014.003.016.003.03.006.03.007.047.009.015.003.06.012.031.006c.01.002.02.005.031.006l.03.007.031.006.03.006.031.006.016.003.015.004.046.008.015.003.03.007c.01.001.02.005.031.006l.031.006.03.006.03.006.031.007c.01 0 .02.004.031.006l.03.006c.011.001.02.004.031.006l.03.007c.01 0 .021.003.032.005l.03.006.046.01.015.003.03.006.032.006.03.007.03.006.016.003.015.002.03.007.031.006.03.006.03.006.032.006.03.007.016.003.015.003.045.009.016.003.03.007c.01 0 .021.004.032.006l.014.003.016.003.06.012.031.006.016.003.015.003.03.006.031.007.03.006c.011.001.02.004.031.006l.03.006.03.006.032.006.03.006.032.007.014.003.016.003.03.006.03.006.032.007c.01 0 .02.004.03.006l.046.009.015.003.03.006.031.006.016.003.015.003.03.006.03.007.031.006c.011.001.021.004.031.006l.03.006.031.007c.01 0 .02.003.03.005.011.002.021.005.032.006l.015.004.015.003.046.009.015.003.03.006.032.007c.01 0 .02.004.03.006l.03.006.03.006c.011.001.022.005.032.006l.03.006.015.003.016.003.03.006.015.004.016.003.03.006.03.006.032.006a4.254 4.254 0 012.994 2.09c1.178 2.056.48 4.684-1.561 5.87L7.51 14.517 7.5 14.5l-.02.012-.01-.018-.021.012-.01-.018-.02.012-.011-.018-.02.011-.01-.018-.02.012-.011-.017-.02.011-.011-.018-.02.012-.01-.018-.02.012-.011-.018-.02.012-.01-.018-.02.012-.01-.018-.022.011-.01-.018-.02.012-.01-.018-.02.012-.01-.018-.021.012-.01-.018-.02.012-.01-.018-.021.011-.01-.017-.02.012-.011-.019-.02.012-.01-.017-.021.011-.01-.018-.02.012-.01-.018-.021.012-.01-.018-.02.012-.011-.018-.02.011-.01-.018-.02.012-.011-.018-.02.012-.01-.018-.02.012-.01-.018-.022.012-.01-.018-.02.011-.01-.017-.02.012-.01-.018-.021.012-.01-.019-.02.012-.01-.018-.021.012-.01-.018-.02.012-.011-.018-.02.012-.01-.018-.021.011-.01-.018-.02.012-.01-.018-.021.012-.01-.017-.02.011-.011-.018-.02.012-.01-.018-.02.012-.011-.018-.02.012-.01-.018-.021.011-.01-.018-.02.012-.01-.018-.021.012-.01-.018-.021.012-.01-.018-.02.012-.01-.018-.021.011-.01-.017-.02.012-.01-.018-.02.012-.011-.019-.02.012-.011-.018-.02.012-.01-.018-.02.012-.01-.018-.022.012-.01-.018-.02.011-.01-.018-.02.012-.01-.018-.02.012-.011-.017-.02.01-.01-.017-.021.012-.01-.018-.02.012-.01-.018-.021.012-.01-.018-.021.011-.01-.018-.02.012-.01-.018-.021.012-.01-.018-.02.012-.01-.018-.02.012-.011-.018-.02.011-.011-.017-.02.012-.01-.019-.02.012-.011-.017-.02.011-.01-.018-.02.012-.011-.018-.02.012-.01-.018-.021.012-.01-.018-.02.011-.01-.018-.021.012-.01-.018-.021.012-.01-.018-.02.012-.01-.018-.021.012-.01-.018-.02.012-.01-.018-.021.011-.01-.017-.02.012-.011-.019-.02.012-.01-.018-.02.012-.011-.018-.02.012-.011-.018-.02.012-.01-.018-.02.011-.01-.017-.02.011-.011-.018-.02.012-.01-.017-.021.011-.01-.018-.02.012-.01-.018-.021.012-.01-.018-.021.012-.01-.018-.02.011-.01-.018-.021.012-.01-.018-.02.012-.01-.018-.021.012-.01-.018-.02.012-.011-.018-.02.011-.01-.018-.02.012-.011-.017-.02.012-.011-.019-.02.012-.01-.018-.02.012L.157 6.454z" fill="#732419"></path><path d="M29.267 11.482l.12.2c1.471 2.568.552 5.879-2.055 7.395l-12.907 7.51-5.329-9.3 12.907-7.51c2.538-1.477 5.739-.707 7.264 1.705zM19.172 2.771c1.178 2.055.479 4.683-1.56 5.87L7.51 14.517l-4.265-7.44 10.102-5.88a4.247 4.247 0 015.825 1.574z" fill="#A13B2D"></path></g><text font-family="BioSans-Regular, Bio Sans" font-size="6" fill="#000" transform="translate(-1)"><tspan x="143.571" y="7.833">®</tspan></text></g></svg>